<svg xmlns="http://www.w3.org/2000/svg" width="960.012" height="527.737" viewBox="0 0 960.012 527.737">
  <g id="coding" transform="translate(0 0)">
    <path id="Path_4" data-name="Path 4" d="M297.035,622.373c-21.318,15.892-27.36,43.852-27.36,43.852s28.521,2.2,49.839-13.7,27.36-43.852,27.36-43.852S318.354,606.482,297.035,622.373Z" transform="translate(-150.59 -171.444)" fill="#f1f1f1"/>
    <path id="Path_5" data-name="Path 5" d="M306.2,632.412c-10.246,24.536-35.906,37.18-35.906,37.18s-9.048-27.137,1.2-51.673,35.905-37.18,35.905-37.18S316.446,607.877,306.2,632.412Z" transform="translate(-150.874 -174.022)" fill="#f1f1f1"/>
    <path id="Path_6" data-name="Path 6" d="M864.744,569.181h0a212.687,212.687,0,0,1-1.785-46.1l1.785-25.466h0C854.91,517.179,857.133,542.932,864.744,569.181Z" transform="translate(-96.081 -181.721)" fill="#cacaca"/>
    <path id="Path_7" data-name="Path 7" d="M871.473,570.624h0a156.322,156.322,0,0,1-.859-27.442l.859-15.158h0C866.742,539.67,867.812,555,871.473,570.624Z" transform="translate(-95.142 -178.905)" fill="#cacaca"/>
    <path id="Path_8" data-name="Path 8" d="M908.613,584.387v8.52a2.569,2.569,0,0,1-2.556,2.556H901.8a.849.849,0,0,0-.852.852V666.18a2.569,2.569,0,0,1-2.556,2.556H846.415a2.558,2.558,0,0,1-2.556-2.556V596.315a.855.855,0,0,0-.852-.852h-5.112a2.558,2.558,0,0,1-2.556-2.556v-8.52a2.552,2.552,0,0,1,2.556-2.556h68.161A2.563,2.563,0,0,1,908.613,584.387Z" transform="translate(-98.196 -173.921)" fill="#f2f2f2"/>
    <rect id="Rectangle_21" data-name="Rectangle 21" width="57.085" height="2.556" transform="translate(745.74 423.332)" fill="#e6e6e6"/>
    <path id="Path_9" data-name="Path 9" d="M900.294,632.3c-19.1,7.905-38.412,7.992-57.937,0V614.29a90.984,90.984,0,0,1,57.938,0Z" transform="translate(-97.546 -171.353)" fill="#e6e6e6"/>
    <circle id="Ellipse_276" data-name="Ellipse 276" cx="77.211" cy="77.211" r="77.211" transform="translate(405.568 31.189)" fill="#feb8b8"/>
    <path id="Path_1461" data-name="Path 1461" d="M682.07,250.289a89.173,89.173,0,0,0-50.731-38.779l-9.479,6.917v-8.982a82.077,82.077,0,0,0-15.332-.893l-8.178,7.4v-6.785a88.321,88.321,0,0,0-60.928,36.241c-17.76,25.6-20.757,61.222-3.29,87.03,4.795-14.737,10.615-28.563,15.411-43.3a43.614,43.614,0,0,0,11.362.055l5.834-13.613,1.63,13.037c18.083-1.575,44.9-5.034,62.045-8.2l-1.667-10,9.973,8.31c5.252-1.209,8.37-2.306,8.113-3.144,12.749,20.554,28.352,33.681,41.1,54.234C692.775,300.833,698.347,276.735,682.07,250.289Z" transform="translate(-127.176 -208.5)" fill="#2f2e41"/>
    <path id="Path_10" data-name="Path 10" d="M781.951,498.643C779.3,482.67,776.558,466.39,769.134,452c-4.879-9.425-12.624-18.407-23.065-20.271a22.315,22.315,0,0,1-6.006-1.39c-3.059-1.474-44.169-24.942-50.7-29.029-5.61-3.509-14.466-10.006-18.932-10.006-4.492-.1-21.719,3.91-88.955-1.345,0,0-18.471,7.28-32.763,16.108-.217-.143-69.785,37.215-72.4,37.117-4.95-.208-9.55,2.961-12.388,6.951s-4.168,8.931-5.561,13.708c15.195,33.839,29.1,67.72,44.294,101.559a8.664,8.664,0,0,1,1.1,4.168,10.171,10.171,0,0,1-1.89,4.168c-7.452,11.971-7.215,27.027-6.4,41.1s1.822,28.931-4.466,41.542c-1.71,3.462-3.934,6.631-5.561,10.094-3.809,7.841-5.186,32.922-2.961,41.347L761.228,715.8C755.234,699.328,781.951,498.643,781.951,498.643Z" transform="translate(-133.113 -191.693)" fill="#ffd500"/>
    <path id="Path_1421" data-name="Path 1421" d="M436.349,553.508a49.215,49.215,0,0,0-.167,12.137l4,57.377c.375,5.408.744,10.8,1.252,16.2.959,10.469,2.391,20.854,4.168,31.225a5.561,5.561,0,0,0,5.7,5.408c17.587,3.721,35.757,3.573,53.706,2.559,27.389-1.529,97.46-4.421,101.741-9.982s1.786-14.556-3.8-19.053-98.05-15.46-98.05-15.46c.9-7.16,3.629-13.9,6.215-20.7,4.644-12.057,8.982-24.51,9.065-37.426s-4.783-26.5-15.363-33.9c-8.7-6.075-19.909-7.2-30.515-6.951-7.717.222-21.049-1.627-28.1,1.39C440.625,538.788,437.392,548.047,436.349,553.508Z" transform="translate(-135.195 -178.297)" fill="#fbbebe"/>
    <path id="Path_1430" data-name="Path 1430" d="M459.953,459.274a14.389,14.389,0,0,0-3.086,4.936,233.369,233.369,0,0,0-19.6,80.106,8.006,8.006,0,0,1-.9,3.879,16.968,16.968,0,0,1-2.044,2.21,7.675,7.675,0,0,0,.918,10.815q.19.16.389.307c2.294-4.317,7.785-5.728,12.666-6.1,23.37-1.849,46.2,9.023,69.638,8.2-1.654-5.714-4.032-11.206-5.381-16.989-5.965-25.678,8.912-53.636-.208-78.369-1.822-4.949-4.866-9.815-9.662-11.984a25.736,25.736,0,0,0-6.186-1.637c-5.923-1.07-17.713-5.644-23.44-3.809-2.114.682-2.947,2.669-4.7,3.87C465.69,456.411,462.16,457.036,459.953,459.274Z" transform="translate(-135.507 -186.093)" fill="#ffd500"/>
    <path id="Path_1421-2" data-name="Path 1421" d="M768.465,536.331c-7.048-3.017-20.381-1.168-28.1-1.39-10.606-.25-21.811.877-30.515,6.952-10.581,7.4-15.446,20.979-15.363,33.9s4.421,25.369,9.065,37.426c2.586,6.8,5.311,13.541,6.214,20.7,0,0-92.469,10.963-98.05,15.46s-8.077,13.492-3.8,19.053,137.859,11.144,155.446,7.423a5.561,5.561,0,0,0,5.7-5.408c1.777-10.371,3.209-20.756,4.168-31.225.507-5.394.877-10.789,1.252-16.2l4-57.376a49.21,49.21,0,0,0-.167-12.138C777.276,548.047,774.043,538.788,768.465,536.331Z" transform="translate(-119.46 -178.297)" fill="#fbbebe"/>
    <path id="Path_1430-2" data-name="Path 1430" d="M738.89,454.711c-1.752-1.2-2.586-3.188-4.7-3.87-5.726-1.835-17.517,2.739-23.44,3.809a25.735,25.735,0,0,0-6.186,1.637c-4.8,2.169-7.84,7.035-9.662,11.984-9.12,24.733,5.756,52.691-.208,78.369-1.349,5.783-3.727,11.274-5.381,16.989,23.44.82,46.268-10.052,69.638-8.2,4.881.375,10.372,1.786,12.666,6.1q.2-.147.389-.307a7.675,7.675,0,0,0,.918-10.815,16.976,16.976,0,0,1-2.044-2.21,8.007,8.007,0,0,1-.9-3.879,233.373,233.373,0,0,0-19.6-80.106,14.394,14.394,0,0,0-3.086-4.936C745.082,457.036,741.551,456.411,738.89,454.711Z" transform="translate(-111.721 -186.093)" fill="#ffd500"/>
    <circle id="Ellipse_1" data-name="Ellipse 1" cx="20.839" cy="20.839" r="20.839" transform="translate(439.072 458.615)" fill="#fbbebe"/>
    <circle id="Ellipse_2" data-name="Ellipse 2" cx="20.839" cy="20.839" r="20.839" transform="translate(485.216 458.615)" fill="#fbbebe"/>
    <path id="Path_11" data-name="Path 11" d="M766.911,707.15h-286.3A12.622,12.622,0,0,1,468,694.542V520.852a12.623,12.623,0,0,1,12.608-12.607h286.3a12.623,12.623,0,0,1,12.608,12.607V694.543A12.623,12.623,0,0,1,766.911,707.15Z" transform="translate(-132.22 -180.737)" fill="#3f3d56"/>
    <circle id="Ellipse_263" data-name="Ellipse 263" cx="8.342" cy="8.342" r="8.342" transform="translate(482.505 418.618)" fill="#fff"/>
    <path id="Path_12" data-name="Path 12" d="M960.012,449.724H0v29.5H56.784v6.857H903.25v-6.857h56.762Z" transform="translate(0 41.655)" fill="#f0a500"/>
    <path id="Path_13" data-name="Path 13" d="M539.46,339.2h0C527.054,339.2,517,328.322,517,314.908h0V302.764c0-13.414,10.057-24.289,22.464-24.289h0V339.2Z" transform="translate(-127.682 -202.019)" fill="#fff"/>
    <path id="Path_14" data-name="Path 14" d="M668.779,278.476h0c12.406,0,22.464,10.874,22.464,24.288v12.144c0,13.414-10.057,24.289-22.464,24.289h0Z" transform="translate(-113.623 -202.019)" fill="#fff"/>
    <path id="Path_15" data-name="Path 15" d="M694.056,310.292h-3.564c0-48.873-36.774-88.634-81.975-88.634s-81.975,39.761-81.975,88.634h-3.564c0-51,38.373-92.488,85.539-92.488S694.056,259.294,694.056,310.292Z" transform="translate(-127.128 -207.638)" fill="#fff"/>
  </g>
</svg>
