<svg xmlns="http://www.w3.org/2000/svg" width="116.86" height="116.86" viewBox="0 0 116.86 116.86">
  <path id="fb" d="M105.89-.012H10.945A10.991,10.991,0,0,0-.013,10.946v94.945a10.991,10.991,0,0,0,10.958,10.957H105.89a10.991,10.991,0,0,0,10.958-10.957V10.945A10.991,10.991,0,0,0,105.89-.012ZM66.418,31.722H79.774V15.705H66.418A18.715,18.715,0,0,0,47.742,34.392V42.4H37.063V58.418H47.74v42.713H63.759V58.418H77.1L79.773,42.4H63.759V34.392a2.7,2.7,0,0,1,2.659-2.672v0Z" transform="translate(0.013 0.012)" fill="#fff" fill-rule="evenodd"/>
</svg>
