<svg xmlns="http://www.w3.org/2000/svg" width="129.541" height="126.352" viewBox="0 0 129.541 126.352">
  <path id="github" d="M64.767,7.887A64.773,64.773,0,0,0,44.291,134.109c3.239.6,4.43-1.408,4.43-3.12,0-1.544-.065-6.646-.091-12.054-18.02,3.918-21.819-7.645-21.819-7.645-2.945-7.488-7.191-9.479-7.191-9.479-5.876-4.024.447-3.935.447-3.935,6.5.454,9.926,6.67,9.926,6.67,5.781,9.9,15.157,7.036,18.85,5.384.583-4.186,2.257-7.045,4.112-8.663-14.387-1.633-29.51-7.189-29.51-32.008a25.081,25.081,0,0,1,6.672-17.382c-.674-1.635-2.893-8.219.624-17.138,0,0,5.439-1.743,17.817,6.639a61.448,61.448,0,0,1,32.429,0c12.362-8.377,17.8-6.639,17.8-6.639,3.521,8.922,1.313,15.51.638,17.139a25.009,25.009,0,0,1,6.665,17.382c0,24.877-15.157,30.346-29.575,31.951,2.324,2.008,4.4,5.95,4.4,11.989,0,8.661-.074,15.642-.074,17.772,0,1.724,1.167,3.739,4.451,3.108A64.775,64.775,0,0,0,64.772,7.865l0,.022Z" transform="translate(0 -7.865)" fill="#fff" fill-rule="evenodd"/>
</svg>
