<svg xmlns="http://www.w3.org/2000/svg" width="129.541" height="129.498" viewBox="0 0 129.541 129.498">
  <path id="insta" d="M64.76,0c-17.589,0-19.8.074-26.7.39A47.508,47.508,0,0,0,22.342,3.4a31.468,31.468,0,0,0-11.466,7.461A31.89,31.89,0,0,0,3.393,22.331a47.34,47.34,0,0,0-3,15.724C.084,44.958,0,47.16,0,64.749S.074,84.53.39,91.444A47.508,47.508,0,0,0,3.4,107.157a31.742,31.742,0,0,0,7.461,11.466,31.753,31.753,0,0,0,11.466,7.482,47.6,47.6,0,0,0,15.724,3c6.9.316,9.105.39,26.694.39s19.781-.074,26.694-.39a47.6,47.6,0,0,0,15.724-3,33.239,33.239,0,0,0,18.969-18.97,48.057,48.057,0,0,0,3.014-15.713c.306-6.9.39-9.105.39-26.694s-.084-19.792-.39-26.694a48.119,48.119,0,0,0-3.014-15.724,31.721,31.721,0,0,0-7.472-11.466A31.373,31.373,0,0,0,107.2,3.383,47.571,47.571,0,0,0,91.433.39C84.52.074,82.328,0,64.739,0ZM58.942,11.666H64.76c17.283,0,19.328.063,26.157.379a35.831,35.831,0,0,1,12.025,2.224,20.024,20.024,0,0,1,7.44,4.848,20.192,20.192,0,0,1,4.848,7.44,35.832,35.832,0,0,1,2.224,12.025c.316,6.818.379,8.874.379,26.157s-.063,19.328-.379,26.157a35.715,35.715,0,0,1-2.224,12.014,21.446,21.446,0,0,1-12.288,12.277,35.452,35.452,0,0,1-12.025,2.234c-6.818.316-8.874.379-26.157.379s-19.338-.063-26.167-.379a35.831,35.831,0,0,1-12.025-2.234,20.023,20.023,0,0,1-7.451-4.837,20.023,20.023,0,0,1-4.837-7.44,35.831,35.831,0,0,1-2.234-12.025c-.306-6.829-.369-8.874-.369-26.167s.063-19.328.369-26.157A35.515,35.515,0,0,1,14.28,26.536a20.023,20.023,0,0,1,4.837-7.44,20.15,20.15,0,0,1,7.451-4.848,36.063,36.063,0,0,1,12.025-2.234c5.975-.263,8.283-.348,20.35-.358ZM99.316,22.416a7.767,7.767,0,1,0,5.5,2.271,7.777,7.777,0,0,0-5.5-2.271ZM64.76,31.5A33.249,33.249,0,1,0,98.009,64.749,33.249,33.249,0,0,0,64.76,31.5Zm0,11.666a21.554,21.554,0,1,0,0,.042Z" fill="#fff"/>
</svg>
