<svg id="linkedin-app" xmlns="http://www.w3.org/2000/svg" width="129.271" height="128.535" viewBox="0 0 129.271 128.535">
  <path id="Path_17" data-name="Path 17" d="M29.193,0h70.884a29.262,29.262,0,0,1,29.193,29.162V99.383a29.262,29.262,0,0,1-29.193,29.152H29.193A29.262,29.262,0,0,1,0,99.383V29.162A29.262,29.262,0,0,1,29.193,0Z" transform="translate(0 0)" fill="#f0a500" fill-rule="evenodd"/>
  <path id="Path_18" data-name="Path 18" d="M52.375,50.341H69.8v8.976h.247c2.435-4.353,8.361-8.976,17.217-8.976,18.4,0,21.8,11.444,21.8,26.332v31.482H90.893V80.174c0-6.406-.135-14.653-9.45-14.653S70.534,72.489,70.534,79.714v28.5H52.375ZM42.06,32.817a9.45,9.45,0,1,1-9.45-9.447A9.448,9.448,0,0,1,42.06,32.817ZM23.182,50.341H42.06v57.814H23.182Z" transform="translate(-1.486 -1.5)" fill="#434343" fill-rule="evenodd"/>
</svg>
